<svg xmlns="http://www.w3.org/2000/svg" version="1.1" xmlns:xlink="http://www.w3.org/1999/xlink" xmlns:svgjs="http://svgjs.dev/svgjs" width="1500" height="1500" viewBox="0 0 1500 1500"><rect width="1500" height="1500" fill="#000000"></rect><g transform="matrix(0.6666666666666666,0,0,0.6666666666666666,250.16994382022466,628.0785287356322)"><svg viewBox="0 0 356 87" data-background-color="#ffffff" preserveAspectRatio="xMidYMid meet" height="366" width="1500" xmlns="http://www.w3.org/2000/svg" xmlns:xlink="http://www.w3.org/1999/xlink"><g id="tight-bounds" transform="matrix(1,0,0,1,-0.06049999999996203,-0.027999999999991587)"><svg viewBox="0 0 356.12052 87.0559444994797" height="87.0559444994797" width="356.12052"><g><svg viewBox="0 0 356.12052 87.0559444994797" height="87.0559444994797" width="356.12052"><g><svg viewBox="0 0 356.12052 87.0559444994797" height="87.0559444994797" width="356.12052"><g><path d="M0 87.056v-87.056h356.121v87.056z" fill="#ffffff" stroke="transparent" stroke-width="0" rx="0%" data-fill-palette-color="tertiary"></path><path d="M3.283 83.773v-80.49h349.554v80.49z" fill="#000000" stroke="transparent" stroke-width="0" rx="0%" data-fill-palette-color="quaternary"></path><path d="M9.85 77.206v-67.356h336.421v67.356z" fill="#ffffff" stroke="transparent" stroke-width="0" data-fill-palette-color="tertiary"></path></g><g transform="matrix(1,0,0,1,19.69974,19.69974)" id="textblocktransform"><svg viewBox="0 0 316.72104 47.6564644994797" height="47.6564644994797" width="316.72104" id="textblock"><g><svg viewBox="0 0 316.72104 47.6564644994797" height="47.6564644994797" width="316.72104"><g transform="matrix(1,0,0,1,0,0)"><svg width="316.72104" viewBox="3.9 -35.5 241.32 36.15" height="47.6564644994797" data-palette-color="#ffffff"><path d="M3.9 0L3.9-35 16.2-35Q20.95-35 23.28-32.1 25.6-29.2 25.6-24.3L25.6-24.3Q25.6-21.15 25.1-18.63 24.6-16.1 22.6-14.18 20.6-12.25 16.55-12.25L16.55-12.25 6.7-12.25 6.7 0 3.9 0ZM16.6-15Q19.4-15 20.78-16.5 22.15-18 22.48-19.9 22.8-21.8 22.8-24.15L22.8-24.15Q22.8-28.25 21.1-30.3 19.4-32.35 16.4-32.35L16.4-32.35 6.7-32.35 6.7-15 16.6-15ZM46.15 0L46.15-17.15Q46.15-20.2 44.37-21.58 42.6-22.95 39.8-22.95L39.8-22.95Q38.1-22.95 36.35-22.48 34.6-22 33.25-21.25L33.25-21.25 33.25 0 30.45 0 30.45-35 33.25-35 33.25-23.7Q34.5-24.55 36.25-25.03 38-25.5 39.9-25.5L39.9-25.5Q42.5-25.5 44.65-24.55L44.65-24.55Q46.65-23.65 47.77-21.85 48.9-20.05 48.9-17.3L48.9-17.3 48.9 0 46.15 0ZM74.45-9.2Q74.45-5 72.15-2.25 69.84 0.5 65.2 0.5L65.2 0.5Q60.55 0.5 58.17-2.27 55.8-5.05 55.8-9.2L55.8-9.2 55.8-15.8Q55.8-20.55 58.22-23.08 60.65-25.6 65.2-25.6L65.2-25.6Q69.55-25.6 72-22.98 74.45-20.35 74.45-15.8L74.45-15.8 74.45-9.2ZM71.65-15.8Q71.65-19.55 69.92-21.3 68.2-23.05 65.2-23.05L65.2-23.05Q62.1-23.05 60.35-21.3 58.6-19.55 58.6-15.8L58.6-15.8 58.6-8.7Q58.6-5.7 60.37-3.85 62.15-2 65.2-2L65.2-2Q68.3-2 69.97-3.83 71.65-5.65 71.65-8.7L71.65-8.7 71.65-15.8ZM83.59 0.65Q80.79-0.15 79.54-1.9 78.29-3.65 78.29-6.6L78.29-6.6 78.29-35 81.09-35 81.09-25.05 87.09-25.05 85.89-22.4 81.09-22.4 81.09-6.6Q81.09-2.6 84.39-1.5L84.39-1.5 83.59 0.65ZM110.79-9.2Q110.79-5 108.49-2.25 106.19 0.5 101.54 0.5L101.54 0.5Q96.89 0.5 94.52-2.27 92.14-5.05 92.14-9.2L92.14-9.2 92.14-15.8Q92.14-20.55 94.57-23.08 96.99-25.6 101.54-25.6L101.54-25.6Q105.89-25.6 108.34-22.98 110.79-20.35 110.79-15.8L110.79-15.8 110.79-9.2ZM107.99-15.8Q107.99-19.55 106.27-21.3 104.54-23.05 101.54-23.05L101.54-23.05Q98.44-23.05 96.69-21.3 94.94-19.55 94.94-15.8L94.94-15.8 94.94-8.7Q94.94-5.7 96.72-3.85 98.49-2 101.54-2L101.54-2Q104.64-2 106.32-3.83 107.99-5.65 107.99-8.7L107.99-8.7 107.99-15.8ZM133.79-1.15Q129.34 0.5 125.49 0.5L125.49 0.5Q121.14 0.5 118.44-1.8 115.74-4.1 115.74-9.15L115.74-9.15 115.74-25.2Q115.74-29 116.81-30.95 117.89-32.9 120.09-34.25L120.09-34.25Q122.29-35.5 125.49-35.5L125.49-35.5Q129.39-35.5 132.54-33.85L132.54-33.85 131.74-31.95Q128.89-33 126.34-33L126.34-33Q123.29-33 120.91-31.5 118.54-30 118.54-25.65L118.54-25.65 118.54-9.25Q118.54-5.8 120.34-3.93 122.14-2.05 125.74-2.05L125.74-2.05Q128.89-2.05 133.19-3.5L133.19-3.5 133.79-1.15ZM137.29 0L137.29-25.05 140.09-25.05 139.94-23.3Q142.29-25.5 146.09-25.5L146.09-25.5Q147.44-25.5 149.79-25.05L149.79-25.05 149.04-22.5Q147.44-23 145.69-23L145.69-23Q143.39-23 141.74-22.15 140.09-21.3 140.09-19.6L140.09-19.6 140.09 0 137.29 0ZM166.88 0Q161.48 0.55 159.08 0.55L159.08 0.55Q153.83 0.55 150.73-1.4 147.63-3.35 147.63-8.45L147.63-8.45 147.63-12.6Q147.63-17.55 151.08-19.25L151.08-19.25Q152.73-20.1 155.28-20.1L155.28-20.1Q157.63-20.1 160.03-19.33 162.43-18.55 164.08-17.3L164.08-17.3Q164.08-20.05 162.48-21.68 160.88-23.3 156.33-23.3L156.33-23.3 156.48-25.45Q161.28-25.45 163.56-23.93 165.83-22.4 166.36-20.3 166.88-18.2 166.88-14.9L166.88-14.9 166.88 0ZM164.08-15.15Q162.03-16.1 159.71-16.8 157.38-17.5 155.43-17.5L155.43-17.5Q150.38-17.5 150.38-12.45L150.38-12.45 150.38-8.1Q150.38-4.85 152.63-3.38 154.88-1.9 159.03-1.9L159.03-1.9Q161.18-1.9 164.08-2.3L164.08-2.3 164.08-15.15ZM172.58 0L172.58-27.45Q172.58-31.6 174.68-33.55 176.78-35.5 179.88-35.5L179.88-35.5Q180.83-35.5 181.73-35.35L181.73-35.35 181.28-32.9Q180.38-33 179.98-33L179.98-33Q175.38-33 175.38-27.45L175.38-27.45 175.38-25.05 181.08-25.05 179.88-22.4 175.38-22.4 175.38 0 172.58 0ZM190.88 0.65Q188.08-0.15 186.83-1.9 185.58-3.65 185.58-6.6L185.58-6.6 185.58-35 188.38-35 188.38-25.05 194.38-25.05 193.18-22.4 188.38-22.4 188.38-6.6Q188.38-2.6 191.68-1.5L191.68-1.5 190.88 0.65ZM232.27 0L228.27-12.25 216.87-12.25 212.97 0 210.02 0 221.22-35 223.87-35 235.27 0 232.27 0ZM222.52-30.65L217.67-15 227.52-15 222.52-30.65ZM242.42 0L242.42-32.45 239.07-32.55 239.07-35 245.22-35 245.22 0 242.42 0Z" opacity="1" transform="matrix(1,0,0,1,0,0)" fill="#000000" class="wordmark-text-0" data-fill-palette-color="quaternary" id="text-0"></path></svg></g></svg></g></svg></g></svg></g><g></g></svg></g><defs></defs></svg><rect width="356.12052" height="87.0559444994797" fill="none" stroke="none" visibility="hidden"></rect></g></svg></g></svg>